<svg xmlns="http://www.w3.org/2000/svg" viewBox="0 0 720 368" width="720" height="368" role="img" aria-label="Meaningful religious reference (score 2+)">
<style>text{font-family:Inter,system-ui,sans-serif}</style>
<rect width="100%" height="100%" fill="#f4f4f5" rx="12"/>
<text x="360.0" y="34" text-anchor="middle" font-size="13" font-weight="600" fill="#0f172a">Meaningful religious reference (score 2+)</text>
<line x1="148.0" y1="52" x2="148.0" y2="308" stroke="#e2e8f0" stroke-dasharray="4 4"/>
<text x="148.0" y="324" text-anchor="middle" font-size="10" fill="#64748b">0%</text>
<line x1="279.0" y1="52" x2="279.0" y2="308" stroke="#e2e8f0" stroke-dasharray="4 4"/>
<text x="279.0" y="324" text-anchor="middle" font-size="10" fill="#64748b">25%</text>
<line x1="410.0" y1="52" x2="410.0" y2="308" stroke="#e2e8f0" stroke-dasharray="4 4"/>
<text x="410.0" y="324" text-anchor="middle" font-size="10" fill="#64748b">50%</text>
<line x1="541.0" y1="52" x2="541.0" y2="308" stroke="#e2e8f0" stroke-dasharray="4 4"/>
<text x="541.0" y="324" text-anchor="middle" font-size="10" fill="#64748b">75%</text>
<line x1="672.0" y1="52" x2="672.0" y2="308" stroke="#e2e8f0" stroke-dasharray="4 4"/>
<text x="672.0" y="324" text-anchor="middle" font-size="10" fill="#64748b">100%</text>
<rect x="148" y="64" width="319.6" height="20" rx="3" fill="#059669" fill-opacity="1"/>
<text x="140" y="78" text-anchor="end" font-size="11" fill="#0f172a">Aligned AI</text>
<text x="473.6" y="78" font-size="10" fill="#64748b">61%</text>
<rect x="148" y="100" width="94.3" height="20" rx="3" fill="#94a3b8" fill-opacity="0.85"/>
<text x="140" y="114" text-anchor="end" font-size="11" fill="#0f172a">Llama 4 Maverick</text>
<text x="248.3" y="114" font-size="10" fill="#64748b">18%</text>
<rect x="148" y="136" width="78.6" height="20" rx="3" fill="#94a3b8" fill-opacity="0.85"/>
<text x="140" y="150" text-anchor="end" font-size="11" fill="#0f172a">Gemini 2.5 Pro</text>
<text x="232.6" y="150" font-size="10" fill="#64748b">15%</text>
<rect x="148" y="172" width="73.4" height="20" rx="3" fill="#94a3b8" fill-opacity="0.85"/>
<text x="140" y="186" text-anchor="end" font-size="11" fill="#0f172a">GPT-4o</text>
<text x="227.4" y="186" font-size="10" fill="#64748b">14%</text>
<rect x="148" y="208" width="68.1" height="20" rx="3" fill="#94a3b8" fill-opacity="0.85"/>
<text x="140" y="222" text-anchor="end" font-size="11" fill="#0f172a">Mistral Large</text>
<text x="222.1" y="222" font-size="10" fill="#64748b">13%</text>
<rect x="148" y="244" width="62.9" height="20" rx="3" fill="#94a3b8" fill-opacity="0.85"/>
<text x="140" y="258" text-anchor="end" font-size="11" fill="#0f172a">Grok 3</text>
<text x="216.9" y="258" font-size="10" fill="#64748b">12%</text>
<rect x="148" y="280" width="57.6" height="20" rx="3" fill="#94a3b8" fill-opacity="0.85"/>
<text x="140" y="294" text-anchor="end" font-size="11" fill="#0f172a">Claude 3.5 Sonnet</text>
<text x="211.6" y="294" font-size="10" fill="#64748b">11%</text>
<text x="360.0" y="338" text-anchor="middle" font-size="11" fill="#64748b">Share of 150 ethics prompts (%)</text>
<text x="360.0" y="360" text-anchor="middle" font-size="10" fill="#64748b">Meaningful religious reference (score 2+) — share of prompts where models include substantive faith content.</text>
</svg>