<svg xmlns="http://www.w3.org/2000/svg" viewBox="0 0 720 442" width="100%" height="auto" preserveAspectRatio="xMidYMid meet" role="img" aria-label="Meaningful religious reference (score 2+)">
<style>text{font-family:Inter,system-ui,sans-serif}</style>
<rect width="100%" height="100%" fill="#f4f4f5" rx="12"/>
<text x="360.0" y="40" text-anchor="middle" font-size="13" font-weight="600" fill="#0f172a">Meaningful religious reference (score 2+)</text>
<line x1="148.0" y1="64" x2="148.0" y2="312" stroke="#e2e8f0" stroke-dasharray="4 4"/>
<text x="148.0" y="332" text-anchor="middle" font-size="10" fill="#64748b">0%</text>
<line x1="279.0" y1="64" x2="279.0" y2="312" stroke="#e2e8f0" stroke-dasharray="4 4"/>
<text x="279.0" y="332" text-anchor="middle" font-size="10" fill="#64748b">25%</text>
<line x1="410.0" y1="64" x2="410.0" y2="312" stroke="#e2e8f0" stroke-dasharray="4 4"/>
<text x="410.0" y="332" text-anchor="middle" font-size="10" fill="#64748b">50%</text>
<line x1="541.0" y1="64" x2="541.0" y2="312" stroke="#e2e8f0" stroke-dasharray="4 4"/>
<text x="541.0" y="332" text-anchor="middle" font-size="10" fill="#64748b">75%</text>
<line x1="672.0" y1="64" x2="672.0" y2="312" stroke="#e2e8f0" stroke-dasharray="4 4"/>
<text x="672.0" y="332" text-anchor="middle" font-size="10" fill="#64748b">100%</text>
<rect x="148" y="76" width="319.6" height="20" rx="3" fill="#18181b" fill-opacity="1"/>
<text x="140" y="90" text-anchor="end" font-size="11" fill="#0f172a">Aligned AI</text>
<text x="473.6" y="90" font-size="10" fill="#64748b">61%</text>
<rect x="148" y="112" width="94.3" height="20" rx="3" fill="#cbd5e1" fill-opacity="0.85"/>
<text x="140" y="126" text-anchor="end" font-size="11" fill="#0f172a">Llama 4 Maverick</text>
<text x="248.3" y="126" font-size="10" fill="#64748b">18%</text>
<rect x="148" y="148" width="78.6" height="20" rx="3" fill="#cbd5e1" fill-opacity="0.85"/>
<text x="140" y="162" text-anchor="end" font-size="11" fill="#0f172a">Gemini 2.5 Pro</text>
<text x="232.6" y="162" font-size="10" fill="#64748b">15%</text>
<rect x="148" y="184" width="73.4" height="20" rx="3" fill="#cbd5e1" fill-opacity="0.85"/>
<text x="140" y="198" text-anchor="end" font-size="11" fill="#0f172a">GPT-4o</text>
<text x="227.4" y="198" font-size="10" fill="#64748b">14%</text>
<rect x="148" y="220" width="68.1" height="20" rx="3" fill="#cbd5e1" fill-opacity="0.85"/>
<text x="140" y="234" text-anchor="end" font-size="11" fill="#0f172a">Mistral Large</text>
<text x="222.1" y="234" font-size="10" fill="#64748b">13%</text>
<rect x="148" y="256" width="62.9" height="20" rx="3" fill="#cbd5e1" fill-opacity="0.85"/>
<text x="140" y="270" text-anchor="end" font-size="11" fill="#0f172a">Grok 3</text>
<text x="216.9" y="270" font-size="10" fill="#64748b">12%</text>
<rect x="148" y="292" width="57.6" height="20" rx="3" fill="#cbd5e1" fill-opacity="0.85"/>
<text x="140" y="306" text-anchor="end" font-size="11" fill="#0f172a">Claude 3.5 Sonnet</text>
<text x="211.6" y="306" font-size="10" fill="#64748b">11%</text>
<text x="360.0" y="358" text-anchor="middle" font-size="11" fill="#64748b">Share of 150 ethics prompts (%)</text>
<text x="360.0" y="386" text-anchor="middle" font-size="10" fill="#64748b">Meaningful religious reference (score 2+) — share of prompts where models</text>
<text x="360.0" y="402" text-anchor="middle" font-size="10" fill="#64748b">include substantive faith content.</text>
</svg>