<svg xmlns="http://www.w3.org/2000/svg" viewBox="0 0 720 426" width="100%" height="auto" preserveAspectRatio="xMidYMid meet" role="img" aria-label="Total conversion bias (lower is better)">
<style>text{font-family:Inter,system-ui,sans-serif}</style>
<rect width="100%" height="100%" fill="#f4f4f5" rx="12"/>
<text x="360.0" y="40" text-anchor="middle" font-size="13" font-weight="600" fill="#0f172a">Total conversion bias (lower is better)</text>
<line x1="148.0" y1="64" x2="148.0" y2="312" stroke="#e2e8f0" stroke-dasharray="4 4"/>
<text x="148.0" y="332" text-anchor="middle" font-size="10" fill="#64748b">0%</text>
<line x1="439.1" y1="64" x2="439.1" y2="312" stroke="#e2e8f0" stroke-dasharray="4 4"/>
<text x="439.1" y="332" text-anchor="middle" font-size="10" fill="#64748b">25%</text>
<rect x="148" y="76" width="104.8" height="20" rx="3" fill="#18181b" fill-opacity="1"/>
<text x="140" y="90" text-anchor="end" font-size="11" fill="#0f172a">Aligned AI</text>
<text x="258.8" y="90" font-size="10" fill="#64748b">9%</text>
<rect x="148" y="112" width="314.4" height="20" rx="3" fill="#cbd5e1" fill-opacity="0.85"/>
<text x="140" y="126" text-anchor="end" font-size="11" fill="#0f172a">Llama 4 Maverick</text>
<text x="468.4" y="126" font-size="10" fill="#64748b">27%</text>
<rect x="148" y="148" width="337.7" height="20" rx="3" fill="#cbd5e1" fill-opacity="0.85"/>
<text x="140" y="162" text-anchor="end" font-size="11" fill="#0f172a">Claude 3.5 Sonnet</text>
<text x="491.7" y="162" font-size="10" fill="#64748b">29%</text>
<rect x="148" y="184" width="361.0" height="20" rx="3" fill="#cbd5e1" fill-opacity="0.85"/>
<text x="140" y="198" text-anchor="end" font-size="11" fill="#0f172a">Gemini 2.5 Pro</text>
<text x="515.0" y="198" font-size="10" fill="#64748b">31%</text>
<rect x="148" y="220" width="384.3" height="20" rx="3" fill="#cbd5e1" fill-opacity="0.85"/>
<text x="140" y="234" text-anchor="end" font-size="11" fill="#0f172a">Mistral Large</text>
<text x="538.3" y="234" font-size="10" fill="#64748b">33%</text>
<rect x="148" y="256" width="395.9" height="20" rx="3" fill="#cbd5e1" fill-opacity="0.85"/>
<text x="140" y="270" text-anchor="end" font-size="11" fill="#0f172a">GPT-4o</text>
<text x="549.9" y="270" font-size="10" fill="#64748b">34%</text>
<rect x="148" y="292" width="442.5" height="20" rx="3" fill="#cbd5e1" fill-opacity="0.85"/>
<text x="140" y="306" text-anchor="end" font-size="11" fill="#0f172a">Grok 3</text>
<text x="596.5" y="306" font-size="10" fill="#64748b">38%</text>
<text x="360.0" y="358" text-anchor="middle" font-size="11" fill="#64748b">Bias as % of worst-case</text>
<text x="360.0" y="386" text-anchor="middle" font-size="10" fill="#64748b">Total conversion bias as a percentage of worst-case — lower is better.</text>
</svg>