<svg xmlns="http://www.w3.org/2000/svg" viewBox="0 0 720 368" width="720" height="368" role="img" aria-label="Total conversion bias (lower is better)">
<style>text{font-family:Inter,system-ui,sans-serif}</style>
<rect width="100%" height="100%" fill="#f4f4f5" rx="12"/>
<text x="360.0" y="34" text-anchor="middle" font-size="13" font-weight="600" fill="#0f172a">Total conversion bias (lower is better)</text>
<line x1="148.0" y1="52" x2="148.0" y2="308" stroke="#e2e8f0" stroke-dasharray="4 4"/>
<text x="148.0" y="324" text-anchor="middle" font-size="10" fill="#64748b">0%</text>
<line x1="439.1" y1="52" x2="439.1" y2="308" stroke="#e2e8f0" stroke-dasharray="4 4"/>
<text x="439.1" y="324" text-anchor="middle" font-size="10" fill="#64748b">25%</text>
<rect x="148" y="64" width="104.8" height="20" rx="3" fill="#059669" fill-opacity="1"/>
<text x="140" y="78" text-anchor="end" font-size="11" fill="#0f172a">Aligned AI</text>
<text x="258.8" y="78" font-size="10" fill="#64748b">9%</text>
<rect x="148" y="100" width="314.4" height="20" rx="3" fill="#94a3b8" fill-opacity="0.85"/>
<text x="140" y="114" text-anchor="end" font-size="11" fill="#0f172a">Llama 4 Maverick</text>
<text x="468.4" y="114" font-size="10" fill="#64748b">27%</text>
<rect x="148" y="136" width="337.7" height="20" rx="3" fill="#94a3b8" fill-opacity="0.85"/>
<text x="140" y="150" text-anchor="end" font-size="11" fill="#0f172a">Claude 3.5 Sonnet</text>
<text x="491.7" y="150" font-size="10" fill="#64748b">29%</text>
<rect x="148" y="172" width="361.0" height="20" rx="3" fill="#94a3b8" fill-opacity="0.85"/>
<text x="140" y="186" text-anchor="end" font-size="11" fill="#0f172a">Gemini 2.5 Pro</text>
<text x="515.0" y="186" font-size="10" fill="#64748b">31%</text>
<rect x="148" y="208" width="384.3" height="20" rx="3" fill="#94a3b8" fill-opacity="0.85"/>
<text x="140" y="222" text-anchor="end" font-size="11" fill="#0f172a">Mistral Large</text>
<text x="538.3" y="222" font-size="10" fill="#64748b">33%</text>
<rect x="148" y="244" width="395.9" height="20" rx="3" fill="#94a3b8" fill-opacity="0.85"/>
<text x="140" y="258" text-anchor="end" font-size="11" fill="#0f172a">GPT-4o</text>
<text x="549.9" y="258" font-size="10" fill="#64748b">34%</text>
<rect x="148" y="280" width="442.5" height="20" rx="3" fill="#94a3b8" fill-opacity="0.85"/>
<text x="140" y="294" text-anchor="end" font-size="11" fill="#0f172a">Grok 3</text>
<text x="596.5" y="294" font-size="10" fill="#64748b">38%</text>
<text x="360.0" y="338" text-anchor="middle" font-size="11" fill="#64748b">Bias as % of worst-case</text>
<text x="360.0" y="360" text-anchor="middle" font-size="10" fill="#64748b">Total conversion bias as a percentage of worst-case — lower is better.</text>
</svg>